<svg version="1.1" id="Layer_1" xmlns="http://www.w3.org/2000/svg" xmlns:xlink="http://www.w3.org/1999/xlink" x="0px" y="0px"
	 width="100%" viewBox="0 0 500 500" enable-background="new 0 0 500 500" xml:space="preserve">
<path fill="#000000" opacity="1.000000" stroke="none" 
	d="
M467.000000,501.000000 
	C311.333374,501.000000 156.166748,501.000000 1.000083,501.000000 
	C1.000056,334.333405 1.000056,167.666824 1.000028,1.000173 
	C167.666550,1.000115 334.333099,1.000115 500.999756,1.000058 
	C500.999817,167.666519 500.999817,334.333038 500.999908,500.999756 
	C489.833344,501.000000 478.666656,501.000000 467.000000,501.000000 
M147.253464,224.840546 
	C146.266510,224.557068 144.721664,224.578125 144.375870,223.944656 
	C138.760696,213.658417 131.284378,213.122910 124.088966,222.022858 
	C124.510437,224.687134 125.044365,226.771439 125.138756,228.875458 
	C125.629303,239.810623 125.590286,239.812378 134.053970,243.819992 
	C134.042953,246.286285 133.790802,248.780426 134.071838,251.212982 
	C134.633102,256.071075 135.765854,260.706329 142.151886,262.838806 
	C141.961914,263.775269 141.784775,264.714600 141.579361,265.647644 
	C141.127670,267.699493 139.652786,270.371613 140.442337,271.649384 
	C141.574387,273.481445 144.398438,275.395477 146.422012,275.314850 
	C150.659180,275.145996 151.383835,271.604645 151.460098,267.125732 
	C152.675247,267.898163 154.126541,268.455017 155.063583,269.481354 
	C158.604996,273.360321 162.726135,273.726807 167.331726,271.922607 
	C179.503510,267.154419 185.084488,255.278549 181.082672,242.526840 
	C180.790146,241.801727 180.497604,241.076630 180.333313,239.869827 
	C180.322083,239.518173 180.189041,239.221085 180.054794,238.427383 
	C179.060287,236.222382 178.065781,234.017380 177.055313,231.306839 
	C176.918335,231.208527 176.781372,231.110229 176.580566,230.449539 
	C176.065475,229.934494 175.550385,229.419449 174.848892,228.277313 
	C173.283463,227.165527 171.718033,226.053741 169.889801,224.493225 
	C169.254776,224.295471 168.619766,224.097717 167.333191,223.310760 
	C160.694336,221.041824 154.206024,220.817596 147.253464,224.840546 
M295.141174,253.535187 
	C295.141174,256.637115 295.141174,259.739075 295.141174,263.113586 
	C297.358093,262.985382 298.945160,262.893616 300.532166,262.801849 
	C300.532166,252.870773 300.532166,243.301392 300.532166,233.847992 
	C295.958801,232.145691 293.572601,233.824677 291.891632,237.906372 
	C290.038849,242.405182 287.587067,246.657272 284.946381,251.911926 
	C282.262177,246.586029 279.795990,242.312012 277.922150,237.792404 
	C276.208069,233.658142 273.662964,232.287506 269.332581,233.758789 
	C269.332581,243.482300 269.332581,253.190262 269.332581,263.125671 
	C271.232239,262.983307 272.808960,262.865143 275.000885,262.700897 
	C275.000885,256.617615 275.000885,250.861053 275.000885,243.669952 
	C277.702332,248.949265 279.574799,252.820724 281.641754,256.585388 
	C283.527985,260.020813 286.286499,259.974609 288.196655,256.498230 
	C290.286804,252.694290 292.223572,248.806107 294.227203,244.954651 
	C294.531860,245.059998 294.836517,245.165329 295.141174,245.270676 
	C295.141174,247.708160 295.141174,250.145660 295.141174,253.535187 
M318.822571,257.808228 
	C322.610504,257.001770 326.398438,256.195312 329.912903,255.447083 
	C332.560333,259.062317 331.816406,265.600067 338.737457,262.485809 
	C335.512085,253.609940 332.334961,244.591690 328.869934,235.685455 
	C328.444641,234.592300 326.499359,233.530365 325.221954,233.485123 
	C323.923798,233.439163 321.782715,234.359085 321.381866,235.389450 
	C317.879547,244.391693 314.684875,253.513641 311.302521,262.866516 
	C313.499969,262.866516 315.129211,262.866516 316.874542,262.866516 
	C317.417786,261.382660 317.925598,259.995575 318.822571,257.808228 
M215.555542,233.326477 
	C214.390289,233.983170 212.539078,234.374573 212.166580,235.337830 
	C208.673660,244.369919 205.433838,253.499863 202.066422,262.751038 
	C204.299362,262.751038 206.064697,262.751038 207.830017,262.751038 
	C207.573639,262.419952 207.317276,262.088837 207.060898,261.757751 
	C208.928223,259.877960 210.548096,256.804047 212.712036,256.355621 
	C217.953049,255.269547 223.617157,255.110580 223.798508,262.813843 
	C226.012421,262.813843 227.635223,262.813843 229.604645,262.813843 
	C226.228821,253.505844 223.029999,244.463043 219.589935,235.512985 
	C219.206116,234.514450 217.451218,234.042938 215.555542,233.326477 
M255.070618,260.402130 
	C255.976883,251.490601 256.883148,242.579071 257.845703,233.114044 
	C254.714340,233.372726 253.155472,233.501495 251.341751,233.651337 
	C251.341751,237.423096 251.348785,240.732895 251.339828,244.042664 
	C251.330368,247.536377 251.530746,251.053101 251.176392,254.512344 
	C251.035553,255.887192 249.899460,257.837585 248.761780,258.239807 
	C247.652298,258.632050 245.002670,257.707062 244.694778,256.796906 
	C243.420135,253.028992 241.048981,253.891586 238.461212,254.480759 
	C239.733047,263.356934 246.876511,266.152435 255.070618,260.402130 
M349.027222,260.305603 
	C349.633606,261.213806 350.211670,262.886719 350.850861,262.910431 
	C356.443207,263.117645 362.046448,263.030243 367.822723,263.030243 
	C367.680481,261.344391 367.586884,260.234955 367.457825,258.705383 
	C363.196198,258.705383 359.125000,258.705383 354.519928,258.705383 
	C354.519928,250.059250 354.519928,241.843735 354.519928,233.256805 
	C352.386688,233.380051 350.829773,233.470001 349.026733,233.574158 
	C349.026733,242.445465 349.026733,250.889938 349.027222,260.305603 
z"/>
<path fill="#F8F8F8" opacity="1.000000" stroke="none" 
	d="
M170.152588,224.941971 
	C171.718033,226.053741 173.283463,227.165527 174.951324,228.892578 
	C175.583984,230.009216 176.114197,230.510574 176.644409,231.011932 
	C176.781372,231.110229 176.918335,231.208527 177.065674,231.928055 
	C178.028748,234.692368 178.981461,236.835464 179.934189,238.978546 
	C180.189041,239.221085 180.322083,239.518173 180.219513,240.474182 
	C180.383148,241.712418 180.660583,242.346268 180.938019,242.980133 
	C185.084488,255.278549 179.503510,267.154419 167.331726,271.922607 
	C162.726135,273.726807 158.604996,273.360321 155.063583,269.481354 
	C154.126541,268.455017 152.675247,267.898163 151.229660,267.555603 
	C150.999222,267.985443 151.067291,267.991028 151.248444,267.575134 
	C150.937622,267.082306 150.445663,267.005341 149.951935,266.983887 
	C149.950150,267.039368 150.059174,267.060394 150.349121,266.710938 
	C150.448303,266.126404 150.257507,265.891357 149.811707,265.424683 
	C146.855255,264.191650 144.153839,263.190247 141.452423,262.188812 
	C135.765854,260.706329 134.633102,256.071075 134.071838,251.212982 
	C133.790802,248.780426 134.042953,246.286285 134.326508,243.307983 
	C134.788071,242.662720 134.903091,242.482300 135.286072,242.128693 
	C142.489914,239.392227 144.478943,233.813187 144.970306,227.040619 
	C146.181473,226.201843 147.101944,225.467133 148.022415,224.732407 
	C154.206024,220.817596 160.694336,221.041824 167.782898,223.836823 
	C168.872604,224.555923 169.512604,224.748947 170.152588,224.941971 
M168.924515,251.531998 
	C167.075455,246.198257 165.486710,240.750427 163.227539,235.596451 
	C162.497086,233.929977 160.127304,232.393845 158.272949,232.045120 
	C157.277802,231.858002 155.173172,234.098312 154.625229,235.622818 
	C152.550476,241.395233 150.867325,247.310959 149.125748,253.199112 
	C148.547211,255.155106 147.171921,257.535370 150.453644,258.494232 
	C153.098724,259.267029 155.280624,258.893097 156.608429,255.926773 
	C157.135880,254.748428 158.611084,253.994308 159.654800,253.047058 
	C160.639709,254.172775 161.711700,255.236542 162.574371,256.449219 
	C163.035217,257.097076 163.117981,258.007965 163.400375,258.789673 
	C164.569214,262.025208 167.205933,262.641266 169.807877,261.404785 
	C170.659424,261.000122 170.649582,258.190521 170.530701,256.516510 
	C170.428833,255.081924 169.608551,253.698380 168.924515,251.531998 
z"/>
<path fill="#ECECEC" opacity="1.000000" stroke="none" 
	d="
M295.141174,253.059174 
	C295.141174,250.145660 295.141174,247.708160 295.141174,245.270676 
	C294.836517,245.165329 294.531860,245.059998 294.227203,244.954651 
	C292.223572,248.806107 290.286804,252.694290 288.196655,256.498230 
	C286.286499,259.974609 283.527985,260.020813 281.641754,256.585388 
	C279.574799,252.820724 277.702332,248.949265 275.000885,243.669952 
	C275.000885,250.861053 275.000885,256.617615 275.000885,262.700897 
	C272.808960,262.865143 271.232239,262.983307 269.332581,263.125671 
	C269.332581,253.190262 269.332581,243.482300 269.332581,233.758789 
	C273.662964,232.287506 276.208069,233.658142 277.922150,237.792404 
	C279.795990,242.312012 282.262177,246.586029 284.946381,251.911926 
	C287.587067,246.657272 290.038849,242.405182 291.891632,237.906372 
	C293.572601,233.824677 295.958801,232.145691 300.532166,233.847992 
	C300.532166,243.301392 300.532166,252.870773 300.532166,262.801849 
	C298.945160,262.893616 297.358093,262.985382 295.141174,263.113586 
	C295.141174,259.739075 295.141174,256.637115 295.141174,253.059174 
z"/>
<path fill="#F5F5F5" opacity="1.000000" stroke="none" 
	d="
M318.627991,258.208374 
	C317.925598,259.995575 317.417786,261.382660 316.874542,262.866516 
	C315.129211,262.866516 313.499969,262.866516 311.302521,262.866516 
	C314.684875,253.513641 317.879547,244.391693 321.381866,235.389450 
	C321.782715,234.359085 323.923798,233.439163 325.221954,233.485123 
	C326.499359,233.530365 328.444641,234.592300 328.869934,235.685455 
	C332.334961,244.591690 335.512085,253.609940 338.737457,262.485809 
	C331.816406,265.600067 332.560333,259.062317 329.912903,255.447083 
	C326.398438,256.195312 322.610504,257.001770 318.627991,258.208374 
M328.802643,251.685349 
	C327.722809,248.110413 326.643005,244.535492 325.563171,240.960556 
	C325.186005,241.044067 324.808838,241.127579 324.431671,241.211090 
	C323.289337,244.683670 322.147034,248.156250 320.899384,251.948914 
	C323.704620,251.948914 325.854706,251.948914 328.802643,251.685349 
z"/>
<path fill="#F5F5F5" opacity="1.000000" stroke="none" 
	d="
M215.943848,233.326752 
	C217.451218,234.042938 219.206116,234.514450 219.589935,235.512985 
	C223.029999,244.463043 226.228821,253.505844 229.604645,262.813843 
	C227.635223,262.813843 226.012421,262.813843 223.798508,262.813843 
	C223.617157,255.110580 217.953049,255.269547 212.712036,256.355621 
	C210.548096,256.804047 208.928223,259.877960 207.060898,261.757751 
	C207.317276,262.088837 207.573639,262.419952 207.830017,262.751038 
	C206.064697,262.751038 204.299362,262.751038 202.066422,262.751038 
	C205.433838,253.499863 208.673660,244.369919 212.166580,235.337830 
	C212.539078,234.374573 214.390289,233.983170 215.943848,233.326752 
M211.965622,250.817825 
	C214.473846,251.351685 216.982056,251.885544 220.308975,252.593674 
	C218.650803,247.949951 217.348846,244.303833 215.767380,239.874924 
	C214.326431,243.868011 213.220566,246.932587 211.965622,250.817825 
z"/>
<path fill="#F2F2F2" opacity="1.000000" stroke="none" 
	d="
M134.944122,242.254700 
	C134.903091,242.482300 134.788071,242.662720 134.446945,242.856796 
	C125.590286,239.812378 125.629303,239.810623 125.138756,228.875458 
	C125.044365,226.771439 124.510437,224.687134 124.088966,222.022858 
	C131.284378,213.122910 138.760696,213.658417 144.375870,223.944656 
	C144.721664,224.578125 146.266510,224.557068 147.637939,224.786469 
	C147.101944,225.467133 146.181473,226.201843 144.721817,227.244461 
	C138.889374,231.062073 135.608215,235.836151 134.944122,242.254700 
z"/>
<path fill="#ECECEC" opacity="1.000000" stroke="none" 
	d="
M254.825790,260.699738 
	C246.876511,266.152435 239.733047,263.356934 238.461212,254.480759 
	C241.048981,253.891586 243.420135,253.028992 244.694778,256.796906 
	C245.002670,257.707062 247.652298,258.632050 248.761780,258.239807 
	C249.899460,257.837585 251.035553,255.887192 251.176392,254.512344 
	C251.530746,251.053101 251.330368,247.536377 251.339828,244.042664 
	C251.348785,240.732895 251.341751,237.423096 251.341751,233.651337 
	C253.155472,233.501495 254.714340,233.372726 257.845703,233.114044 
	C256.883148,242.579071 255.976883,251.490601 254.825790,260.699738 
z"/>
<path fill="#ECECEC" opacity="1.000000" stroke="none" 
	d="
M349.026978,259.820007 
	C349.026733,250.889938 349.026733,242.445465 349.026733,233.574158 
	C350.829773,233.470001 352.386688,233.380051 354.519928,233.256805 
	C354.519928,241.843735 354.519928,250.059250 354.519928,258.705383 
	C359.125000,258.705383 363.196198,258.705383 367.457825,258.705383 
	C367.586884,260.234955 367.680481,261.344391 367.822723,263.030243 
	C362.046448,263.030243 356.443207,263.117645 350.850861,262.910431 
	C350.211670,262.886719 349.633606,261.213806 349.026978,259.820007 
z"/>
<path fill="#ECECEC" opacity="1.000000" stroke="none" 
	d="
M141.802155,262.513794 
	C144.153839,263.190247 146.855255,264.191650 149.377579,265.326843 
	C149.485382,265.993896 149.772278,266.527130 150.059174,267.060394 
	C150.059174,267.060394 149.950150,267.039368 149.920868,267.361450 
	C150.283493,267.786041 150.675385,267.888519 151.067291,267.991028 
	C151.067291,267.991028 150.999222,267.985443 151.017441,267.956482 
	C151.383835,271.604645 150.659180,275.145996 146.422012,275.314850 
	C144.398438,275.395477 141.574387,273.481445 140.442337,271.649384 
	C139.652786,270.371613 141.127670,267.699493 141.579361,265.647644 
	C141.784775,264.714600 141.961914,263.775269 141.802155,262.513794 
z"/>
<path fill="#F2F2F2" opacity="1.000000" stroke="none" 
	d="
M179.994492,238.702972 
	C178.981461,236.835464 178.028748,234.692368 177.073654,232.180817 
	C178.065781,234.017380 179.060287,236.222382 179.994492,238.702972 
z"/>
<path fill="#F2F2F2" opacity="1.000000" stroke="none" 
	d="
M170.021194,224.717590 
	C169.512604,224.748947 168.872604,224.555923 168.108673,224.131439 
	C168.619766,224.097717 169.254776,224.295471 170.021194,224.717590 
z"/>
<path fill="#F2F2F2" opacity="1.000000" stroke="none" 
	d="
M181.010345,242.753479 
	C180.660583,242.346268 180.383148,241.712418 180.155396,240.715027 
	C180.497604,241.076630 180.790146,241.801727 181.010345,242.753479 
z"/>
<path fill="#F2F2F2" opacity="1.000000" stroke="none" 
	d="
M176.612488,230.730743 
	C176.114197,230.510574 175.583984,230.009216 175.044525,229.206131 
	C175.550385,229.419449 176.065475,229.934494 176.612488,230.730743 
z"/>
<path fill="#0D0D0D" opacity="1.000000" stroke="none" 
	d="
M169.015244,251.912140 
	C169.608551,253.698380 170.428833,255.081924 170.530701,256.516510 
	C170.649582,258.190521 170.659424,261.000122 169.807877,261.404785 
	C167.205933,262.641266 164.569214,262.025208 163.400375,258.789673 
	C163.117981,258.007965 163.035217,257.097076 162.574371,256.449219 
	C161.711700,255.236542 160.639709,254.172775 159.654800,253.047058 
	C158.611084,253.994308 157.135880,254.748428 156.608429,255.926773 
	C155.280624,258.893097 153.098724,259.267029 150.453644,258.494232 
	C147.171921,257.535370 148.547211,255.155106 149.125748,253.199112 
	C150.867325,247.310959 152.550476,241.395233 154.625229,235.622818 
	C155.173172,234.098312 157.277802,231.858002 158.272949,232.045120 
	C160.127304,232.393845 162.497086,233.929977 163.227539,235.596451 
	C165.486710,240.750427 167.075455,246.198257 169.015244,251.912140 
z"/>
<path fill="#0D0D0D" opacity="1.000000" stroke="none" 
	d="
M135.286072,242.128693 
	C135.608215,235.836151 138.889374,231.062073 144.431122,227.348511 
	C144.478943,233.813187 142.489914,239.392227 135.286072,242.128693 
z"/>
<path fill="#000000" opacity="1.000000" stroke="none" 
	d="
M150.349121,266.710938 
	C149.772278,266.527130 149.485382,265.993896 149.632599,265.558472 
	C150.257507,265.891357 150.448303,266.126404 150.349121,266.710938 
z"/>
<path fill="#000000" opacity="1.000000" stroke="none" 
	d="
M151.248444,267.575134 
	C150.675385,267.888519 150.283493,267.786041 149.922638,267.305969 
	C150.445663,267.005341 150.937622,267.082306 151.248444,267.575134 
z"/>
<path fill="#0D0D0D" opacity="1.000000" stroke="none" 
	d="
M328.403687,251.817139 
	C325.854706,251.948914 323.704620,251.948914 320.899384,251.948914 
	C322.147034,248.156250 323.289337,244.683670 324.431671,241.211090 
	C324.808838,241.127579 325.186005,241.044067 325.563171,240.960556 
	C326.643005,244.535492 327.722809,248.110413 328.403687,251.817139 
z"/>
<path fill="#0D0D0D" opacity="1.000000" stroke="none" 
	d="
M212.040161,250.407486 
	C213.220566,246.932587 214.326431,243.868011 215.767380,239.874924 
	C217.348846,244.303833 218.650803,247.949951 220.308975,252.593674 
	C216.982056,251.885544 214.473846,251.351685 212.040161,250.407486 
z"/>
</svg>