<svg id="visual" viewBox="0 0 1536 300" width="1536" height="300" xmlns="http://www.w3.org/2000/svg" xmlns:xlink="http://www.w3.org/1999/xlink" version="1.1"><path d="M0 144L42.7 127.3C85.3 110.7 170.7 77.3 256 64.7C341.3 52 426.7 60 512 89C597.3 118 682.7 168 768 197.5C853.3 227 938.7 236 1024 212.5C1109.3 189 1194.7 133 1280 109.5C1365.3 86 1450.7 95 1493.3 99.5L1536 104L1536 301L1493.3 301C1450.7 301 1365.3 301 1280 301C1194.7 301 1109.3 301 1024 301C938.7 301 853.3 301 768 301C682.7 301 597.3 301 512 301C426.7 301 341.3 301 256 301C170.7 301 85.3 301 42.7 301L0 301Z" fill="#322b39" stroke-linecap="round" stroke-linejoin="miter"></path></svg>